<svg width="49" height="50" viewBox="0 0 59 60" fill="none" xmlns="http://www.w3.org/2000/svg">
<path d="M23.6786 58.719C23.2681 58.9466 22.8308 58.9938 22.3668 58.8608C21.9028 58.7277 21.557 58.4559 21.3295 58.0454L1.28552 21.8852C1.05798 21.4747 1.01074 21.0374 1.14379 20.5734C1.27685 20.1094 1.54862 19.7636 1.95911 19.5361L20.543 9.23483C24.1255 7.24905 27.3031 6.07307 30.0759 5.70688C32.828 5.30338 35.2312 5.67864 37.2856 6.83268C39.3567 7.92871 41.1162 9.78282 42.5641 12.395C43.2261 13.5892 43.5647 14.8162 43.5801 16.076C43.6121 17.2778 43.4494 18.3925 43.092 19.4199C42.772 20.4266 42.3961 21.2447 41.9645 21.8742C43.7136 21.6852 45.5242 22.0475 47.3965 22.961C49.2854 23.8165 50.747 25.1772 51.7813 27.043C53.3327 29.8418 53.9994 32.4968 53.7815 35.0079C53.5429 37.4818 52.4964 39.8181 50.6419 42.0168C48.8246 44.1949 46.2181 46.2252 42.8223 48.1075L23.6786 58.719ZM30.8244 42.172L36.0301 39.2864C36.963 38.7693 37.4506 38.1088 37.4928 37.3048C37.5516 36.4429 37.4156 35.7134 37.0846 35.1163C36.7123 34.4446 36.1471 33.953 35.389 33.6415C34.6475 33.2719 33.8477 33.3251 32.9894 33.8008L27.7836 36.6864L30.8244 42.172ZM22.602 27.3385L27.304 24.7321C28.1249 24.2771 28.5585 23.6952 28.6048 22.9866C28.6677 22.22 28.5337 21.5382 28.2027 20.9411C27.8717 20.344 27.3645 19.869 26.6811 19.5161C26.035 19.1425 25.3014 19.1833 24.4804 19.6383L19.7785 22.2447L22.602 27.3385Z" fill="#0B110E"/>
</svg>
