<svg width="51" height="50" viewBox="0 0 51 50" fill="none" xmlns="http://www.w3.org/2000/svg">
<path d="M25.8607 0.862305C12.1033 0.862305 0.945312 12.0619 0.945312 25.8754C0.945312 36.927 8.08358 46.3028 17.9854 49.6107C19.2291 49.8421 19.6319 49.0667 19.6319 48.408V43.7514C12.7012 45.2647 11.2582 40.7999 11.2582 40.7999C10.1246 37.9088 8.49053 37.1396 8.49053 37.1396C6.22946 35.5867 8.66286 35.6201 8.66286 35.6201C11.1648 35.7952 12.4812 38.1985 12.4812 38.1985C14.7028 42.0214 18.3093 40.9166 19.7315 40.2767C19.9537 38.6613 20.5994 37.5565 21.3137 36.9333C15.7804 36.2975 9.96262 34.1527 9.96262 24.5706C9.96262 21.8379 10.9364 19.6075 12.5289 17.8566C12.2714 17.225 11.4181 14.68 12.7718 11.2365C12.7718 11.2365 14.8647 10.5653 19.6256 13.8003C21.6127 13.2459 23.7429 12.9686 25.8607 12.9582C27.9785 12.9686 30.1109 13.2459 32.102 13.8003C36.8588 10.5653 38.9476 11.2365 38.9476 11.2365C40.3034 14.682 39.45 17.2271 39.1926 17.8566C40.7913 19.6075 41.7568 21.84 41.7568 24.5706C41.7568 34.1777 35.9286 36.2934 30.3808 36.9124C31.2736 37.6878 32.0896 39.2095 32.0896 41.544V48.408C32.0896 49.073 32.4882 49.8546 33.7527 49.6087C43.6462 46.2965 50.7762 36.9229 50.7762 25.8754C50.7762 12.0619 39.6203 0.862305 25.8607 0.862305Z" fill="#FEFCFB"/>
</svg>
