<svg width="61" height="61" viewBox="0 0 61 61" fill="none" xmlns="http://www.w3.org/2000/svg">
<g filter="url(#filter0_d_509_13)">
<path d="M4 48C4 50.7614 6.23858 53 9 53H52C54.7614 53 57 50.7614 57 48V5C57 2.23858 54.7614 0 52 0H9C6.23858 0 4 2.23858 4 5V48Z" fill="#FECF70"/>
<path d="M4 48C4 50.7614 6.23858 53 9 53H52C54.7614 53 57 50.7614 57 48V5C57 2.23858 54.7614 0 52 0H9C6.23858 0 4 2.23858 4 5V48Z" fill="#FECF70"/>
<path d="M29.2183 40.548C28.925 40.548 28.6757 40.4453 28.4703 40.24C28.265 40.0347 28.1623 39.7853 28.1623 39.492V30.912H19.7143C19.421 30.912 19.1717 30.8093 18.9663 30.604C18.761 30.3987 18.6583 30.1493 18.6583 29.856V27.524C18.6583 27.2013 18.761 26.952 18.9663 26.776C19.1717 26.5707 19.421 26.468 19.7143 26.468H28.1623V18.108C28.1623 17.8147 28.265 17.5653 28.4703 17.36C28.6757 17.1547 28.925 17.052 29.2183 17.052H31.7703C32.093 17.052 32.3423 17.1547 32.5183 17.36C32.7237 17.5653 32.8263 17.8147 32.8263 18.108V26.468H41.2743C41.5677 26.468 41.817 26.5707 42.0223 26.776C42.2277 26.952 42.3303 27.2013 42.3303 27.524V29.856C42.3303 30.1493 42.2277 30.3987 42.0223 30.604C41.817 30.8093 41.5677 30.912 41.2743 30.912H32.8263V39.492C32.8263 39.7853 32.7237 40.0347 32.5183 40.24C32.3423 40.4453 32.093 40.548 31.7703 40.548H29.2183Z" fill="#FEFCFA"/>
</g>

</svg>
