<svg width="43" height="45" viewBox="0 0 43 45" fill="none" xmlns="http://www.w3.org/2000/svg">
<path d="M40.2056 22.5C40.2056 32.8633 31.8308 41.2644 21.5 41.2644C11.1692 41.2644 2.79435 32.8633 2.79435 22.5C2.79435 12.1367 11.1692 3.73559 21.5 3.73559C31.8308 3.73559 40.2056 12.1367 40.2056 22.5Z" fill="#FECF70"/>
<path d="M18.3814 2.17767C19.4531 -0.72589 23.547 -0.72589 24.6186 2.17767L25.0023 3.21731C25.7479 5.2375 28.1783 6.02966 29.9652 4.83492L30.8848 4.22008C33.4531 2.50291 36.7651 4.9168 35.9307 7.8977L35.632 8.96503C35.0515 11.039 36.5535 13.1129 38.6992 13.2L39.8035 13.2448C42.8874 13.3699 44.1525 17.2757 41.7309 19.1953L40.8638 19.8827C39.1789 21.2183 39.1789 23.7817 40.8638 25.1173L41.7309 25.8047C44.1525 27.7243 42.8874 31.6301 39.8035 31.7552L38.6992 31.8C36.5535 31.8871 35.0515 33.961 35.632 36.035L35.9307 37.1023C36.7651 40.0832 33.4531 42.4971 30.8848 40.7799L29.9652 40.1651C28.1783 38.9703 25.7479 39.7625 25.0023 41.7827L24.6186 42.8223C23.547 45.7259 19.4531 45.7259 18.3814 42.8223L17.9977 41.7827C17.2521 39.7625 14.8217 38.9703 13.0348 40.1651L12.1152 40.7799C9.54693 42.4971 6.2349 40.0832 7.06926 37.1023L7.36801 36.035C7.94853 33.961 6.44647 31.8871 4.30077 31.8L3.19654 31.7552C0.112584 31.6301 -1.1525 27.7243 1.26915 25.8047L2.13624 25.1173C3.82113 23.7817 3.82114 21.2183 2.13624 19.8827L1.26915 19.1953C-1.1525 17.2757 0.112582 13.3699 3.19654 13.2448L4.30077 13.2C6.44647 13.1129 7.94853 11.039 7.36801 8.96503L7.06926 7.8977C6.2349 4.91681 9.54693 2.50291 12.1152 4.22008L13.0348 4.83492C14.8217 6.02966 17.2521 5.2375 17.9977 3.21731L18.3814 2.17767Z" fill="#FECF70"/>
</svg>
