<svg width="825" height="39" viewBox="0 0 825 39" fill="none" xmlns="http://www.w3.org/2000/svg">
<path d="M13.7109 18.4238H6.30859L7.07031 13.9316L12.5 13.9512C13.2943 13.9512 14.056 13.86 14.7852 13.6777C15.5273 13.4824 16.1523 13.1439 16.6602 12.6621C17.181 12.1803 17.513 11.4967 17.6562 10.6113C17.7734 9.80404 17.7083 9.17253 17.4609 8.7168C17.2135 8.24805 16.8164 7.91602 16.2695 7.7207C15.7357 7.51237 15.0977 7.40169 14.3555 7.38867L10.7812 7.36914L6.75781 30.5137H0.078125L5 2.07617L14.5703 2.0957C15.8073 2.10872 17.0312 2.24544 18.2422 2.50586C19.4531 2.76628 20.5404 3.18945 21.5039 3.77539C22.4674 4.34831 23.2227 5.12956 23.7695 6.11914C24.3164 7.0957 24.5443 8.31966 24.4531 9.79102C24.362 11.3926 23.9128 12.6947 23.1055 13.6973C22.3112 14.6868 21.2826 15.4225 20.0195 15.9043C18.7565 16.373 17.3893 16.627 15.918 16.666L13.7109 18.4238ZM11.4453 30.5137H2.46094L5.66406 25.2402L11.6602 25.2598C12.4023 25.2467 13.099 25.123 13.75 24.8887C14.4141 24.6543 14.9674 24.2897 15.4102 23.7949C15.8659 23.2871 16.1589 22.6426 16.2891 21.8613C16.4062 21.1973 16.3932 20.6178 16.25 20.123C16.1198 19.6152 15.8464 19.2181 15.4297 18.9316C15.026 18.6452 14.4792 18.4824 13.7891 18.4434L7.83203 18.4238L8.65234 13.9316L15.1367 13.9512L16.3086 15.7285C17.6237 15.7415 18.7891 15.9759 19.8047 16.4316C20.8203 16.8874 21.6016 17.5775 22.1484 18.502C22.7083 19.4134 22.9427 20.5592 22.8516 21.9395C22.7214 24.0618 22.1094 25.7546 21.0156 27.0176C19.9219 28.2676 18.5286 29.166 16.8359 29.7129C15.1432 30.2598 13.3464 30.5267 11.4453 30.5137ZM36.7969 0.513672L31.6016 30.5137H25.1562L30.3516 0.513672H36.7969ZM36.5234 20.2793L36.5625 19.8691C36.7318 18.3457 37.1029 16.9199 37.6758 15.5918C38.2487 14.2637 39.0104 13.0983 39.9609 12.0957C40.9245 11.0931 42.0573 10.3184 43.3594 9.77148C44.6615 9.21159 46.1198 8.95117 47.7344 8.99023C49.2839 9.01628 50.625 9.31576 51.7578 9.88867C52.8906 10.4616 53.8216 11.2428 54.5508 12.2324C55.2799 13.209 55.7943 14.3418 56.0938 15.6309C56.4062 16.9069 56.4974 18.2676 56.3672 19.7129L56.3281 20.1426C56.1589 21.653 55.7812 23.0658 55.1953 24.3809C54.6094 25.696 53.8346 26.8483 52.8711 27.8379C51.9206 28.8275 50.7943 29.5957 49.4922 30.1426C48.1901 30.6895 46.7383 30.9434 45.1367 30.9043C43.6133 30.8783 42.2786 30.5853 41.1328 30.0254C40 29.4525 39.069 28.6842 38.3398 27.7207C37.6107 26.7441 37.0898 25.6243 36.7773 24.3613C36.4779 23.0853 36.3932 21.7246 36.5234 20.2793ZM42.9883 19.8691L42.9492 20.2793C42.9102 20.8132 42.8841 21.3991 42.8711 22.0371C42.8711 22.6621 42.9427 23.2676 43.0859 23.8535C43.2292 24.4264 43.4896 24.9017 43.8672 25.2793C44.2578 25.6439 44.8177 25.8392 45.5469 25.8652C46.3281 25.8913 46.9792 25.7285 47.5 25.377C48.0339 25.0254 48.4635 24.5566 48.7891 23.9707C49.1146 23.3848 49.362 22.7533 49.5312 22.0762C49.7135 21.3991 49.8372 20.748 49.9023 20.123L49.9414 19.7129C49.9805 19.1921 50 18.6126 50 17.9746C50.013 17.3236 49.9479 16.7051 49.8047 16.1191C49.6615 15.5332 49.3945 15.0514 49.0039 14.6738C48.6133 14.2832 48.0534 14.0749 47.3242 14.0488C46.543 14.0228 45.8854 14.1921 45.3516 14.5566C44.8307 14.9212 44.4076 15.403 44.082 16.002C43.7565 16.5879 43.5091 17.2259 43.3398 17.916C43.1706 18.5931 43.0534 19.2441 42.9883 19.8691ZM73.7695 9.38086H79.668L76.2109 29.6738C75.9375 31.7051 75.2474 33.4043 74.1406 34.7715C73.0469 36.1517 71.6667 37.1868 70 37.877C68.3333 38.5671 66.5104 38.8861 64.5312 38.834C63.5938 38.821 62.6693 38.6908 61.7578 38.4434C60.8594 38.196 60.0065 37.8314 59.1992 37.3496C58.3919 36.8809 57.6758 36.2884 57.0508 35.5723L60.0977 31.7832C60.6576 32.4863 61.3086 33.0267 62.0508 33.4043C62.806 33.7819 63.6328 33.9772 64.5312 33.9902C65.4557 34.0163 66.276 33.8535 66.9922 33.502C67.7214 33.1504 68.3203 32.6491 68.7891 31.998C69.2578 31.347 69.5768 30.5658 69.7461 29.6543L72.4023 14.0488L73.7695 9.38086ZM58.3398 20.3379L58.3984 19.9277C58.5547 18.5996 58.8672 17.278 59.3359 15.9629C59.8047 14.6478 60.4362 13.4564 61.2305 12.3887C62.0378 11.321 63.0143 10.4811 64.1602 9.86914C65.319 9.24414 66.6667 8.95117 68.2031 8.99023C69.6224 9.0293 70.7552 9.39388 71.6016 10.084C72.4609 10.7741 73.1055 11.6595 73.5352 12.7402C73.9648 13.821 74.2448 14.9863 74.375 16.2363C74.5052 17.4733 74.5508 18.6647 74.5117 19.8105L74.4727 20.3184C74.2643 21.4512 73.9193 22.6426 73.4375 23.8926C72.9688 25.1426 72.3568 26.3079 71.6016 27.3887C70.8594 28.4694 69.9609 29.3418 68.9062 30.0059C67.8646 30.6569 66.6667 30.9629 65.3125 30.9238C63.8932 30.8978 62.7083 30.5658 61.7578 29.9277C60.8073 29.2767 60.0586 28.4368 59.5117 27.4082C58.9779 26.3665 58.6198 25.2337 58.4375 24.0098C58.2552 22.7728 58.2227 21.5488 58.3398 20.3379ZM64.8242 19.9277L64.7852 20.3379C64.7331 20.8457 64.707 21.4121 64.707 22.0371C64.7201 22.6491 64.8047 23.2415 64.9609 23.8145C65.1172 24.3874 65.3841 24.8626 65.7617 25.2402C66.1393 25.6178 66.6667 25.8197 67.3438 25.8457C68.3464 25.8978 69.1732 25.6895 69.8242 25.2207C70.4753 24.752 70.9766 24.1335 71.3281 23.3652C71.6797 22.584 71.9076 21.7572 72.0117 20.8848L72.1875 19.3223C72.2526 18.7363 72.2852 18.1439 72.2852 17.5449C72.2982 16.9329 72.2201 16.3665 72.0508 15.8457C71.8945 15.3249 71.6146 14.9017 71.2109 14.5762C70.8073 14.2376 70.2279 14.0618 69.4727 14.0488C68.7044 14.0228 68.0404 14.1986 67.4805 14.5762C66.9336 14.9408 66.4779 15.4225 66.1133 16.0215C65.7487 16.6204 65.4622 17.265 65.2539 17.9551C65.0456 18.6452 64.9023 19.3027 64.8242 19.9277ZM162.734 18.4238H155.332L156.094 13.9316L161.523 13.9512C162.318 13.9512 163.079 13.86 163.809 13.6777C164.551 13.4824 165.176 13.1439 165.684 12.6621C166.204 12.1803 166.536 11.4967 166.68 10.6113C166.797 9.80404 166.732 9.17253 166.484 8.7168C166.237 8.24805 165.84 7.91602 165.293 7.7207C164.759 7.51237 164.121 7.40169 163.379 7.38867L159.805 7.36914L155.781 30.5137H149.102L154.023 2.07617L163.594 2.0957C164.831 2.10872 166.055 2.24544 167.266 2.50586C168.477 2.76628 169.564 3.18945 170.527 3.77539C171.491 4.34831 172.246 5.12956 172.793 6.11914C173.34 7.0957 173.568 8.31966 173.477 9.79102C173.385 11.3926 172.936 12.6947 172.129 13.6973C171.335 14.6868 170.306 15.4225 169.043 15.9043C167.78 16.373 166.413 16.627 164.941 16.666L162.734 18.4238ZM160.469 30.5137H151.484L154.688 25.2402L160.684 25.2598C161.426 25.2467 162.122 25.123 162.773 24.8887C163.438 24.6543 163.991 24.2897 164.434 23.7949C164.889 23.2871 165.182 22.6426 165.312 21.8613C165.43 21.1973 165.417 20.6178 165.273 20.123C165.143 19.6152 164.87 19.2181 164.453 18.9316C164.049 18.6452 163.503 18.4824 162.812 18.4434L156.855 18.4238L157.676 13.9316L164.16 13.9512L165.332 15.7285C166.647 15.7415 167.812 15.9759 168.828 16.4316C169.844 16.8874 170.625 17.5775 171.172 18.502C171.732 19.4134 171.966 20.5592 171.875 21.9395C171.745 24.0618 171.133 25.7546 170.039 27.0176C168.945 28.2676 167.552 29.166 165.859 29.7129C164.167 30.2598 162.37 30.5267 160.469 30.5137ZM185.82 0.513672L180.625 30.5137H174.18L179.375 0.513672H185.82ZM185.547 20.2793L185.586 19.8691C185.755 18.3457 186.126 16.9199 186.699 15.5918C187.272 14.2637 188.034 13.0983 188.984 12.0957C189.948 11.0931 191.081 10.3184 192.383 9.77148C193.685 9.21159 195.143 8.95117 196.758 8.99023C198.307 9.01628 199.648 9.31576 200.781 9.88867C201.914 10.4616 202.845 11.2428 203.574 12.2324C204.303 13.209 204.818 14.3418 205.117 15.6309C205.43 16.9069 205.521 18.2676 205.391 19.7129L205.352 20.1426C205.182 21.653 204.805 23.0658 204.219 24.3809C203.633 25.696 202.858 26.8483 201.895 27.8379C200.944 28.8275 199.818 29.5957 198.516 30.1426C197.214 30.6895 195.762 30.9434 194.16 30.9043C192.637 30.8783 191.302 30.5853 190.156 30.0254C189.023 29.4525 188.092 28.6842 187.363 27.7207C186.634 26.7441 186.113 25.6243 185.801 24.3613C185.501 23.0853 185.417 21.7246 185.547 20.2793ZM192.012 19.8691L191.973 20.2793C191.934 20.8132 191.908 21.3991 191.895 22.0371C191.895 22.6621 191.966 23.2676 192.109 23.8535C192.253 24.4264 192.513 24.9017 192.891 25.2793C193.281 25.6439 193.841 25.8392 194.57 25.8652C195.352 25.8913 196.003 25.7285 196.523 25.377C197.057 25.0254 197.487 24.5566 197.812 23.9707C198.138 23.3848 198.385 22.7533 198.555 22.0762C198.737 21.3991 198.861 20.748 198.926 20.123L198.965 19.7129C199.004 19.1921 199.023 18.6126 199.023 17.9746C199.036 17.3236 198.971 16.7051 198.828 16.1191C198.685 15.5332 198.418 15.0514 198.027 14.6738C197.637 14.2832 197.077 14.0749 196.348 14.0488C195.566 14.0228 194.909 14.1921 194.375 14.5566C193.854 14.9212 193.431 15.403 193.105 16.002C192.78 16.5879 192.533 17.2259 192.363 17.916C192.194 18.5931 192.077 19.2441 192.012 19.8691ZM222.793 9.38086H228.691L225.234 29.6738C224.961 31.7051 224.271 33.4043 223.164 34.7715C222.07 36.1517 220.69 37.1868 219.023 37.877C217.357 38.5671 215.534 38.8861 213.555 38.834C212.617 38.821 211.693 38.6908 210.781 38.4434C209.883 38.196 209.03 37.8314 208.223 37.3496C207.415 36.8809 206.699 36.2884 206.074 35.5723L209.121 31.7832C209.681 32.4863 210.332 33.0267 211.074 33.4043C211.829 33.7819 212.656 33.9772 213.555 33.9902C214.479 34.0163 215.299 33.8535 216.016 33.502C216.745 33.1504 217.344 32.6491 217.812 31.998C218.281 31.347 218.6 30.5658 218.77 29.6543L221.426 14.0488L222.793 9.38086ZM207.363 20.3379L207.422 19.9277C207.578 18.5996 207.891 17.278 208.359 15.9629C208.828 14.6478 209.46 13.4564 210.254 12.3887C211.061 11.321 212.038 10.4811 213.184 9.86914C214.342 9.24414 215.69 8.95117 217.227 8.99023C218.646 9.0293 219.779 9.39388 220.625 10.084C221.484 10.7741 222.129 11.6595 222.559 12.7402C222.988 13.821 223.268 14.9863 223.398 16.2363C223.529 17.4733 223.574 18.6647 223.535 19.8105L223.496 20.3184C223.288 21.4512 222.943 22.6426 222.461 23.8926C221.992 25.1426 221.38 26.3079 220.625 27.3887C219.883 28.4694 218.984 29.3418 217.93 30.0059C216.888 30.6569 215.69 30.9629 214.336 30.9238C212.917 30.8978 211.732 30.5658 210.781 29.9277C209.831 29.2767 209.082 28.4368 208.535 27.4082C208.001 26.3665 207.643 25.2337 207.461 24.0098C207.279 22.7728 207.246 21.5488 207.363 20.3379ZM213.848 19.9277L213.809 20.3379C213.757 20.8457 213.73 21.4121 213.73 22.0371C213.743 22.6491 213.828 23.2415 213.984 23.8145C214.141 24.3874 214.408 24.8626 214.785 25.2402C215.163 25.6178 215.69 25.8197 216.367 25.8457C217.37 25.8978 218.197 25.6895 218.848 25.2207C219.499 24.752 220 24.1335 220.352 23.3652C220.703 22.584 220.931 21.7572 221.035 20.8848L221.211 19.3223C221.276 18.7363 221.309 18.1439 221.309 17.5449C221.322 16.9329 221.243 16.3665 221.074 15.8457C220.918 15.3249 220.638 14.9017 220.234 14.5762C219.831 14.2376 219.251 14.0618 218.496 14.0488C217.728 14.0228 217.064 14.1986 216.504 14.5762C215.957 14.9408 215.501 15.4225 215.137 16.0215C214.772 16.6204 214.486 17.265 214.277 17.9551C214.069 18.6452 213.926 19.3027 213.848 19.9277ZM311.758 18.4238H304.355L305.117 13.9316L310.547 13.9512C311.341 13.9512 312.103 13.86 312.832 13.6777C313.574 13.4824 314.199 13.1439 314.707 12.6621C315.228 12.1803 315.56 11.4967 315.703 10.6113C315.82 9.80404 315.755 9.17253 315.508 8.7168C315.26 8.24805 314.863 7.91602 314.316 7.7207C313.783 7.51237 313.145 7.40169 312.402 7.38867L308.828 7.36914L304.805 30.5137H298.125L303.047 2.07617L312.617 2.0957C313.854 2.10872 315.078 2.24544 316.289 2.50586C317.5 2.76628 318.587 3.18945 319.551 3.77539C320.514 4.34831 321.27 5.12956 321.816 6.11914C322.363 7.0957 322.591 8.31966 322.5 9.79102C322.409 11.3926 321.96 12.6947 321.152 13.6973C320.358 14.6868 319.329 15.4225 318.066 15.9043C316.803 16.373 315.436 16.627 313.965 16.666L311.758 18.4238ZM309.492 30.5137H300.508L303.711 25.2402L309.707 25.2598C310.449 25.2467 311.146 25.123 311.797 24.8887C312.461 24.6543 313.014 24.2897 313.457 23.7949C313.913 23.2871 314.206 22.6426 314.336 21.8613C314.453 21.1973 314.44 20.6178 314.297 20.123C314.167 19.6152 313.893 19.2181 313.477 18.9316C313.073 18.6452 312.526 18.4824 311.836 18.4434L305.879 18.4238L306.699 13.9316L313.184 13.9512L314.355 15.7285C315.671 15.7415 316.836 15.9759 317.852 16.4316C318.867 16.8874 319.648 17.5775 320.195 18.502C320.755 19.4134 320.99 20.5592 320.898 21.9395C320.768 24.0618 320.156 25.7546 319.062 27.0176C317.969 28.2676 316.576 29.166 314.883 29.7129C313.19 30.2598 311.393 30.5267 309.492 30.5137ZM334.844 0.513672L329.648 30.5137H323.203L328.398 0.513672H334.844ZM334.57 20.2793L334.609 19.8691C334.779 18.3457 335.15 16.9199 335.723 15.5918C336.296 14.2637 337.057 13.0983 338.008 12.0957C338.971 11.0931 340.104 10.3184 341.406 9.77148C342.708 9.21159 344.167 8.95117 345.781 8.99023C347.331 9.01628 348.672 9.31576 349.805 9.88867C350.938 10.4616 351.868 11.2428 352.598 12.2324C353.327 13.209 353.841 14.3418 354.141 15.6309C354.453 16.9069 354.544 18.2676 354.414 19.7129L354.375 20.1426C354.206 21.653 353.828 23.0658 353.242 24.3809C352.656 25.696 351.882 26.8483 350.918 27.8379C349.967 28.8275 348.841 29.5957 347.539 30.1426C346.237 30.6895 344.785 30.9434 343.184 30.9043C341.66 30.8783 340.326 30.5853 339.18 30.0254C338.047 29.4525 337.116 28.6842 336.387 27.7207C335.658 26.7441 335.137 25.6243 334.824 24.3613C334.525 23.0853 334.44 21.7246 334.57 20.2793ZM341.035 19.8691L340.996 20.2793C340.957 20.8132 340.931 21.3991 340.918 22.0371C340.918 22.6621 340.99 23.2676 341.133 23.8535C341.276 24.4264 341.536 24.9017 341.914 25.2793C342.305 25.6439 342.865 25.8392 343.594 25.8652C344.375 25.8913 345.026 25.7285 345.547 25.377C346.081 25.0254 346.51 24.5566 346.836 23.9707C347.161 23.3848 347.409 22.7533 347.578 22.0762C347.76 21.3991 347.884 20.748 347.949 20.123L347.988 19.7129C348.027 19.1921 348.047 18.6126 348.047 17.9746C348.06 17.3236 347.995 16.7051 347.852 16.1191C347.708 15.5332 347.441 15.0514 347.051 14.6738C346.66 14.2832 346.1 14.0749 345.371 14.0488C344.59 14.0228 343.932 14.1921 343.398 14.5566C342.878 14.9212 342.454 15.403 342.129 16.002C341.803 16.5879 341.556 17.2259 341.387 17.916C341.217 18.5931 341.1 19.2441 341.035 19.8691ZM371.816 9.38086H377.715L374.258 29.6738C373.984 31.7051 373.294 33.4043 372.188 34.7715C371.094 36.1517 369.714 37.1868 368.047 37.877C366.38 38.5671 364.557 38.8861 362.578 38.834C361.641 38.821 360.716 38.6908 359.805 38.4434C358.906 38.196 358.053 37.8314 357.246 37.3496C356.439 36.8809 355.723 36.2884 355.098 35.5723L358.145 31.7832C358.704 32.4863 359.355 33.0267 360.098 33.4043C360.853 33.7819 361.68 33.9772 362.578 33.9902C363.503 34.0163 364.323 33.8535 365.039 33.502C365.768 33.1504 366.367 32.6491 366.836 31.998C367.305 31.347 367.624 30.5658 367.793 29.6543L370.449 14.0488L371.816 9.38086ZM356.387 20.3379L356.445 19.9277C356.602 18.5996 356.914 17.278 357.383 15.9629C357.852 14.6478 358.483 13.4564 359.277 12.3887C360.085 11.321 361.061 10.4811 362.207 9.86914C363.366 9.24414 364.714 8.95117 366.25 8.99023C367.669 9.0293 368.802 9.39388 369.648 10.084C370.508 10.7741 371.152 11.6595 371.582 12.7402C372.012 13.821 372.292 14.9863 372.422 16.2363C372.552 17.4733 372.598 18.6647 372.559 19.8105L372.52 20.3184C372.311 21.4512 371.966 22.6426 371.484 23.8926C371.016 25.1426 370.404 26.3079 369.648 27.3887C368.906 28.4694 368.008 29.3418 366.953 30.0059C365.911 30.6569 364.714 30.9629 363.359 30.9238C361.94 30.8978 360.755 30.5658 359.805 29.9277C358.854 29.2767 358.105 28.4368 357.559 27.4082C357.025 26.3665 356.667 25.2337 356.484 24.0098C356.302 22.7728 356.27 21.5488 356.387 20.3379ZM362.871 19.9277L362.832 20.3379C362.78 20.8457 362.754 21.4121 362.754 22.0371C362.767 22.6491 362.852 23.2415 363.008 23.8145C363.164 24.3874 363.431 24.8626 363.809 25.2402C364.186 25.6178 364.714 25.8197 365.391 25.8457C366.393 25.8978 367.22 25.6895 367.871 25.2207C368.522 24.752 369.023 24.1335 369.375 23.3652C369.727 22.584 369.954 21.7572 370.059 20.8848L370.234 19.3223C370.299 18.7363 370.332 18.1439 370.332 17.5449C370.345 16.9329 370.267 16.3665 370.098 15.8457C369.941 15.3249 369.661 14.9017 369.258 14.5762C368.854 14.2376 368.275 14.0618 367.52 14.0488C366.751 14.0228 366.087 14.1986 365.527 14.5762C364.98 14.9408 364.525 15.4225 364.16 16.0215C363.796 16.6204 363.509 17.265 363.301 17.9551C363.092 18.6452 362.949 19.3027 362.871 19.9277ZM460.781 18.4238H453.379L454.141 13.9316L459.57 13.9512C460.365 13.9512 461.126 13.86 461.855 13.6777C462.598 13.4824 463.223 13.1439 463.73 12.6621C464.251 12.1803 464.583 11.4967 464.727 10.6113C464.844 9.80404 464.779 9.17253 464.531 8.7168C464.284 8.24805 463.887 7.91602 463.34 7.7207C462.806 7.51237 462.168 7.40169 461.426 7.38867L457.852 7.36914L453.828 30.5137H447.148L452.07 2.07617L461.641 2.0957C462.878 2.10872 464.102 2.24544 465.312 2.50586C466.523 2.76628 467.611 3.18945 468.574 3.77539C469.538 4.34831 470.293 5.12956 470.84 6.11914C471.387 7.0957 471.615 8.31966 471.523 9.79102C471.432 11.3926 470.983 12.6947 470.176 13.6973C469.382 14.6868 468.353 15.4225 467.09 15.9043C465.827 16.373 464.46 16.627 462.988 16.666L460.781 18.4238ZM458.516 30.5137H449.531L452.734 25.2402L458.73 25.2598C459.473 25.2467 460.169 25.123 460.82 24.8887C461.484 24.6543 462.038 24.2897 462.48 23.7949C462.936 23.2871 463.229 22.6426 463.359 21.8613C463.477 21.1973 463.464 20.6178 463.32 20.123C463.19 19.6152 462.917 19.2181 462.5 18.9316C462.096 18.6452 461.549 18.4824 460.859 18.4434L454.902 18.4238L455.723 13.9316L462.207 13.9512L463.379 15.7285C464.694 15.7415 465.859 15.9759 466.875 16.4316C467.891 16.8874 468.672 17.5775 469.219 18.502C469.779 19.4134 470.013 20.5592 469.922 21.9395C469.792 24.0618 469.18 25.7546 468.086 27.0176C466.992 28.2676 465.599 29.166 463.906 29.7129C462.214 30.2598 460.417 30.5267 458.516 30.5137ZM483.867 0.513672L478.672 30.5137H472.227L477.422 0.513672H483.867ZM483.594 20.2793L483.633 19.8691C483.802 18.3457 484.173 16.9199 484.746 15.5918C485.319 14.2637 486.081 13.0983 487.031 12.0957C487.995 11.0931 489.128 10.3184 490.43 9.77148C491.732 9.21159 493.19 8.95117 494.805 8.99023C496.354 9.01628 497.695 9.31576 498.828 9.88867C499.961 10.4616 500.892 11.2428 501.621 12.2324C502.35 13.209 502.865 14.3418 503.164 15.6309C503.477 16.9069 503.568 18.2676 503.438 19.7129L503.398 20.1426C503.229 21.653 502.852 23.0658 502.266 24.3809C501.68 25.696 500.905 26.8483 499.941 27.8379C498.991 28.8275 497.865 29.5957 496.562 30.1426C495.26 30.6895 493.809 30.9434 492.207 30.9043C490.684 30.8783 489.349 30.5853 488.203 30.0254C487.07 29.4525 486.139 28.6842 485.41 27.7207C484.681 26.7441 484.16 25.6243 483.848 24.3613C483.548 23.0853 483.464 21.7246 483.594 20.2793ZM490.059 19.8691L490.02 20.2793C489.98 20.8132 489.954 21.3991 489.941 22.0371C489.941 22.6621 490.013 23.2676 490.156 23.8535C490.299 24.4264 490.56 24.9017 490.938 25.2793C491.328 25.6439 491.888 25.8392 492.617 25.8652C493.398 25.8913 494.049 25.7285 494.57 25.377C495.104 25.0254 495.534 24.5566 495.859 23.9707C496.185 23.3848 496.432 22.7533 496.602 22.0762C496.784 21.3991 496.908 20.748 496.973 20.123L497.012 19.7129C497.051 19.1921 497.07 18.6126 497.07 17.9746C497.083 17.3236 497.018 16.7051 496.875 16.1191C496.732 15.5332 496.465 15.0514 496.074 14.6738C495.684 14.2832 495.124 14.0749 494.395 14.0488C493.613 14.0228 492.956 14.1921 492.422 14.5566C491.901 14.9212 491.478 15.403 491.152 16.002C490.827 16.5879 490.579 17.2259 490.41 17.916C490.241 18.5931 490.124 19.2441 490.059 19.8691ZM520.84 9.38086H526.738L523.281 29.6738C523.008 31.7051 522.318 33.4043 521.211 34.7715C520.117 36.1517 518.737 37.1868 517.07 37.877C515.404 38.5671 513.581 38.8861 511.602 38.834C510.664 38.821 509.74 38.6908 508.828 38.4434C507.93 38.196 507.077 37.8314 506.27 37.3496C505.462 36.8809 504.746 36.2884 504.121 35.5723L507.168 31.7832C507.728 32.4863 508.379 33.0267 509.121 33.4043C509.876 33.7819 510.703 33.9772 511.602 33.9902C512.526 34.0163 513.346 33.8535 514.062 33.502C514.792 33.1504 515.391 32.6491 515.859 31.998C516.328 31.347 516.647 30.5658 516.816 29.6543L519.473 14.0488L520.84 9.38086ZM505.41 20.3379L505.469 19.9277C505.625 18.5996 505.938 17.278 506.406 15.9629C506.875 14.6478 507.507 13.4564 508.301 12.3887C509.108 11.321 510.085 10.4811 511.23 9.86914C512.389 9.24414 513.737 8.95117 515.273 8.99023C516.693 9.0293 517.826 9.39388 518.672 10.084C519.531 10.7741 520.176 11.6595 520.605 12.7402C521.035 13.821 521.315 14.9863 521.445 16.2363C521.576 17.4733 521.621 18.6647 521.582 19.8105L521.543 20.3184C521.335 21.4512 520.99 22.6426 520.508 23.8926C520.039 25.1426 519.427 26.3079 518.672 27.3887C517.93 28.4694 517.031 29.3418 515.977 30.0059C514.935 30.6569 513.737 30.9629 512.383 30.9238C510.964 30.8978 509.779 30.5658 508.828 29.9277C507.878 29.2767 507.129 28.4368 506.582 27.4082C506.048 26.3665 505.69 25.2337 505.508 24.0098C505.326 22.7728 505.293 21.5488 505.41 20.3379ZM511.895 19.9277L511.855 20.3379C511.803 20.8457 511.777 21.4121 511.777 22.0371C511.79 22.6491 511.875 23.2415 512.031 23.8145C512.188 24.3874 512.454 24.8626 512.832 25.2402C513.21 25.6178 513.737 25.8197 514.414 25.8457C515.417 25.8978 516.243 25.6895 516.895 25.2207C517.546 24.752 518.047 24.1335 518.398 23.3652C518.75 22.584 518.978 21.7572 519.082 20.8848L519.258 19.3223C519.323 18.7363 519.355 18.1439 519.355 17.5449C519.368 16.9329 519.29 16.3665 519.121 15.8457C518.965 15.3249 518.685 14.9017 518.281 14.5762C517.878 14.2376 517.298 14.0618 516.543 14.0488C515.775 14.0228 515.111 14.1986 514.551 14.5762C514.004 14.9408 513.548 15.4225 513.184 16.0215C512.819 16.6204 512.533 17.265 512.324 17.9551C512.116 18.6452 511.973 19.3027 511.895 19.9277ZM609.805 18.4238H602.402L603.164 13.9316L608.594 13.9512C609.388 13.9512 610.15 13.86 610.879 13.6777C611.621 13.4824 612.246 13.1439 612.754 12.6621C613.275 12.1803 613.607 11.4967 613.75 10.6113C613.867 9.80404 613.802 9.17253 613.555 8.7168C613.307 8.24805 612.91 7.91602 612.363 7.7207C611.829 7.51237 611.191 7.40169 610.449 7.38867L606.875 7.36914L602.852 30.5137H596.172L601.094 2.07617L610.664 2.0957C611.901 2.10872 613.125 2.24544 614.336 2.50586C615.547 2.76628 616.634 3.18945 617.598 3.77539C618.561 4.34831 619.316 5.12956 619.863 6.11914C620.41 7.0957 620.638 8.31966 620.547 9.79102C620.456 11.3926 620.007 12.6947 619.199 13.6973C618.405 14.6868 617.376 15.4225 616.113 15.9043C614.85 16.373 613.483 16.627 612.012 16.666L609.805 18.4238ZM607.539 30.5137H598.555L601.758 25.2402L607.754 25.2598C608.496 25.2467 609.193 25.123 609.844 24.8887C610.508 24.6543 611.061 24.2897 611.504 23.7949C611.96 23.2871 612.253 22.6426 612.383 21.8613C612.5 21.1973 612.487 20.6178 612.344 20.123C612.214 19.6152 611.94 19.2181 611.523 18.9316C611.12 18.6452 610.573 18.4824 609.883 18.4434L603.926 18.4238L604.746 13.9316L611.23 13.9512L612.402 15.7285C613.717 15.7415 614.883 15.9759 615.898 16.4316C616.914 16.8874 617.695 17.5775 618.242 18.502C618.802 19.4134 619.036 20.5592 618.945 21.9395C618.815 24.0618 618.203 25.7546 617.109 27.0176C616.016 28.2676 614.622 29.166 612.93 29.7129C611.237 30.2598 609.44 30.5267 607.539 30.5137ZM632.891 0.513672L627.695 30.5137H621.25L626.445 0.513672H632.891ZM632.617 20.2793L632.656 19.8691C632.826 18.3457 633.197 16.9199 633.77 15.5918C634.342 14.2637 635.104 13.0983 636.055 12.0957C637.018 11.0931 638.151 10.3184 639.453 9.77148C640.755 9.21159 642.214 8.95117 643.828 8.99023C645.378 9.01628 646.719 9.31576 647.852 9.88867C648.984 10.4616 649.915 11.2428 650.645 12.2324C651.374 13.209 651.888 14.3418 652.188 15.6309C652.5 16.9069 652.591 18.2676 652.461 19.7129L652.422 20.1426C652.253 21.653 651.875 23.0658 651.289 24.3809C650.703 25.696 649.928 26.8483 648.965 27.8379C648.014 28.8275 646.888 29.5957 645.586 30.1426C644.284 30.6895 642.832 30.9434 641.23 30.9043C639.707 30.8783 638.372 30.5853 637.227 30.0254C636.094 29.4525 635.163 28.6842 634.434 27.7207C633.704 26.7441 633.184 25.6243 632.871 24.3613C632.572 23.0853 632.487 21.7246 632.617 20.2793ZM639.082 19.8691L639.043 20.2793C639.004 20.8132 638.978 21.3991 638.965 22.0371C638.965 22.6621 639.036 23.2676 639.18 23.8535C639.323 24.4264 639.583 24.9017 639.961 25.2793C640.352 25.6439 640.911 25.8392 641.641 25.8652C642.422 25.8913 643.073 25.7285 643.594 25.377C644.128 25.0254 644.557 24.5566 644.883 23.9707C645.208 23.3848 645.456 22.7533 645.625 22.0762C645.807 21.3991 645.931 20.748 645.996 20.123L646.035 19.7129C646.074 19.1921 646.094 18.6126 646.094 17.9746C646.107 17.3236 646.042 16.7051 645.898 16.1191C645.755 15.5332 645.488 15.0514 645.098 14.6738C644.707 14.2832 644.147 14.0749 643.418 14.0488C642.637 14.0228 641.979 14.1921 641.445 14.5566C640.924 14.9212 640.501 15.403 640.176 16.002C639.85 16.5879 639.603 17.2259 639.434 17.916C639.264 18.5931 639.147 19.2441 639.082 19.8691ZM669.863 9.38086H675.762L672.305 29.6738C672.031 31.7051 671.341 33.4043 670.234 34.7715C669.141 36.1517 667.76 37.1868 666.094 37.877C664.427 38.5671 662.604 38.8861 660.625 38.834C659.688 38.821 658.763 38.6908 657.852 38.4434C656.953 38.196 656.1 37.8314 655.293 37.3496C654.486 36.8809 653.77 36.2884 653.145 35.5723L656.191 31.7832C656.751 32.4863 657.402 33.0267 658.145 33.4043C658.9 33.7819 659.727 33.9772 660.625 33.9902C661.549 34.0163 662.37 33.8535 663.086 33.502C663.815 33.1504 664.414 32.6491 664.883 31.998C665.352 31.347 665.671 30.5658 665.84 29.6543L668.496 14.0488L669.863 9.38086ZM654.434 20.3379L654.492 19.9277C654.648 18.5996 654.961 17.278 655.43 15.9629C655.898 14.6478 656.53 13.4564 657.324 12.3887C658.132 11.321 659.108 10.4811 660.254 9.86914C661.413 9.24414 662.76 8.95117 664.297 8.99023C665.716 9.0293 666.849 9.39388 667.695 10.084C668.555 10.7741 669.199 11.6595 669.629 12.7402C670.059 13.821 670.339 14.9863 670.469 16.2363C670.599 17.4733 670.645 18.6647 670.605 19.8105L670.566 20.3184C670.358 21.4512 670.013 22.6426 669.531 23.8926C669.062 25.1426 668.451 26.3079 667.695 27.3887C666.953 28.4694 666.055 29.3418 665 30.0059C663.958 30.6569 662.76 30.9629 661.406 30.9238C659.987 30.8978 658.802 30.5658 657.852 29.9277C656.901 29.2767 656.152 28.4368 655.605 27.4082C655.072 26.3665 654.714 25.2337 654.531 24.0098C654.349 22.7728 654.316 21.5488 654.434 20.3379ZM660.918 19.9277L660.879 20.3379C660.827 20.8457 660.801 21.4121 660.801 22.0371C660.814 22.6491 660.898 23.2415 661.055 23.8145C661.211 24.3874 661.478 24.8626 661.855 25.2402C662.233 25.6178 662.76 25.8197 663.438 25.8457C664.44 25.8978 665.267 25.6895 665.918 25.2207C666.569 24.752 667.07 24.1335 667.422 23.3652C667.773 22.584 668.001 21.7572 668.105 20.8848L668.281 19.3223C668.346 18.7363 668.379 18.1439 668.379 17.5449C668.392 16.9329 668.314 16.3665 668.145 15.8457C667.988 15.3249 667.708 14.9017 667.305 14.5762C666.901 14.2376 666.322 14.0618 665.566 14.0488C664.798 14.0228 664.134 14.1986 663.574 14.5762C663.027 14.9408 662.572 15.4225 662.207 16.0215C661.842 16.6204 661.556 17.265 661.348 17.9551C661.139 18.6452 660.996 19.3027 660.918 19.9277ZM758.828 18.4238H751.426L752.188 13.9316L757.617 13.9512C758.411 13.9512 759.173 13.86 759.902 13.6777C760.645 13.4824 761.27 13.1439 761.777 12.6621C762.298 12.1803 762.63 11.4967 762.773 10.6113C762.891 9.80404 762.826 9.17253 762.578 8.7168C762.331 8.24805 761.934 7.91602 761.387 7.7207C760.853 7.51237 760.215 7.40169 759.473 7.38867L755.898 7.36914L751.875 30.5137H745.195L750.117 2.07617L759.688 2.0957C760.924 2.10872 762.148 2.24544 763.359 2.50586C764.57 2.76628 765.658 3.18945 766.621 3.77539C767.585 4.34831 768.34 5.12956 768.887 6.11914C769.434 7.0957 769.661 8.31966 769.57 9.79102C769.479 11.3926 769.03 12.6947 768.223 13.6973C767.428 14.6868 766.4 15.4225 765.137 15.9043C763.874 16.373 762.507 16.627 761.035 16.666L758.828 18.4238ZM756.562 30.5137H747.578L750.781 25.2402L756.777 25.2598C757.52 25.2467 758.216 25.123 758.867 24.8887C759.531 24.6543 760.085 24.2897 760.527 23.7949C760.983 23.2871 761.276 22.6426 761.406 21.8613C761.523 21.1973 761.51 20.6178 761.367 20.123C761.237 19.6152 760.964 19.2181 760.547 18.9316C760.143 18.6452 759.596 18.4824 758.906 18.4434L752.949 18.4238L753.77 13.9316L760.254 13.9512L761.426 15.7285C762.741 15.7415 763.906 15.9759 764.922 16.4316C765.938 16.8874 766.719 17.5775 767.266 18.502C767.826 19.4134 768.06 20.5592 767.969 21.9395C767.839 24.0618 767.227 25.7546 766.133 27.0176C765.039 28.2676 763.646 29.166 761.953 29.7129C760.26 30.2598 758.464 30.5267 756.562 30.5137ZM781.914 0.513672L776.719 30.5137H770.273L775.469 0.513672H781.914ZM781.641 20.2793L781.68 19.8691C781.849 18.3457 782.22 16.9199 782.793 15.5918C783.366 14.2637 784.128 13.0983 785.078 12.0957C786.042 11.0931 787.174 10.3184 788.477 9.77148C789.779 9.21159 791.237 8.95117 792.852 8.99023C794.401 9.01628 795.742 9.31576 796.875 9.88867C798.008 10.4616 798.939 11.2428 799.668 12.2324C800.397 13.209 800.911 14.3418 801.211 15.6309C801.523 16.9069 801.615 18.2676 801.484 19.7129L801.445 20.1426C801.276 21.653 800.898 23.0658 800.312 24.3809C799.727 25.696 798.952 26.8483 797.988 27.8379C797.038 28.8275 795.911 29.5957 794.609 30.1426C793.307 30.6895 791.855 30.9434 790.254 30.9043C788.73 30.8783 787.396 30.5853 786.25 30.0254C785.117 29.4525 784.186 28.6842 783.457 27.7207C782.728 26.7441 782.207 25.6243 781.895 24.3613C781.595 23.0853 781.51 21.7246 781.641 20.2793ZM788.105 19.8691L788.066 20.2793C788.027 20.8132 788.001 21.3991 787.988 22.0371C787.988 22.6621 788.06 23.2676 788.203 23.8535C788.346 24.4264 788.607 24.9017 788.984 25.2793C789.375 25.6439 789.935 25.8392 790.664 25.8652C791.445 25.8913 792.096 25.7285 792.617 25.377C793.151 25.0254 793.581 24.5566 793.906 23.9707C794.232 23.3848 794.479 22.7533 794.648 22.0762C794.831 21.3991 794.954 20.748 795.02 20.123L795.059 19.7129C795.098 19.1921 795.117 18.6126 795.117 17.9746C795.13 17.3236 795.065 16.7051 794.922 16.1191C794.779 15.5332 794.512 15.0514 794.121 14.6738C793.73 14.2832 793.171 14.0749 792.441 14.0488C791.66 14.0228 791.003 14.1921 790.469 14.5566C789.948 14.9212 789.525 15.403 789.199 16.002C788.874 16.5879 788.626 17.2259 788.457 17.916C788.288 18.5931 788.171 19.2441 788.105 19.8691ZM818.887 9.38086H824.785L821.328 29.6738C821.055 31.7051 820.365 33.4043 819.258 34.7715C818.164 36.1517 816.784 37.1868 815.117 37.877C813.451 38.5671 811.628 38.8861 809.648 38.834C808.711 38.821 807.786 38.6908 806.875 38.4434C805.977 38.196 805.124 37.8314 804.316 37.3496C803.509 36.8809 802.793 36.2884 802.168 35.5723L805.215 31.7832C805.775 32.4863 806.426 33.0267 807.168 33.4043C807.923 33.7819 808.75 33.9772 809.648 33.9902C810.573 34.0163 811.393 33.8535 812.109 33.502C812.839 33.1504 813.438 32.6491 813.906 31.998C814.375 31.347 814.694 30.5658 814.863 29.6543L817.52 14.0488L818.887 9.38086ZM803.457 20.3379L803.516 19.9277C803.672 18.5996 803.984 17.278 804.453 15.9629C804.922 14.6478 805.553 13.4564 806.348 12.3887C807.155 11.321 808.132 10.4811 809.277 9.86914C810.436 9.24414 811.784 8.95117 813.32 8.99023C814.74 9.0293 815.872 9.39388 816.719 10.084C817.578 10.7741 818.223 11.6595 818.652 12.7402C819.082 13.821 819.362 14.9863 819.492 16.2363C819.622 17.4733 819.668 18.6647 819.629 19.8105L819.59 20.3184C819.382 21.4512 819.036 22.6426 818.555 23.8926C818.086 25.1426 817.474 26.3079 816.719 27.3887C815.977 28.4694 815.078 29.3418 814.023 30.0059C812.982 30.6569 811.784 30.9629 810.43 30.9238C809.01 30.8978 807.826 30.5658 806.875 29.9277C805.924 29.2767 805.176 28.4368 804.629 27.4082C804.095 26.3665 803.737 25.2337 803.555 24.0098C803.372 22.7728 803.34 21.5488 803.457 20.3379ZM809.941 19.9277L809.902 20.3379C809.85 20.8457 809.824 21.4121 809.824 22.0371C809.837 22.6491 809.922 23.2415 810.078 23.8145C810.234 24.3874 810.501 24.8626 810.879 25.2402C811.257 25.6178 811.784 25.8197 812.461 25.8457C813.464 25.8978 814.29 25.6895 814.941 25.2207C815.592 24.752 816.094 24.1335 816.445 23.3652C816.797 22.584 817.025 21.7572 817.129 20.8848L817.305 19.3223C817.37 18.7363 817.402 18.1439 817.402 17.5449C817.415 16.9329 817.337 16.3665 817.168 15.8457C817.012 15.3249 816.732 14.9017 816.328 14.5762C815.924 14.2376 815.345 14.0618 814.59 14.0488C813.822 14.0228 813.158 14.1986 812.598 14.5762C812.051 14.9408 811.595 15.4225 811.23 16.0215C810.866 16.6204 810.579 17.265 810.371 17.9551C810.163 18.6452 810.02 19.3027 809.941 19.9277Z" fill="#0C1618"/>
</svg>
