<svg width="60" height="59" viewBox="0 0 60 59" fill="none" xmlns="http://www.w3.org/2000/svg">
<path d="M30 0C13.435 0 0 13.5425 0 30.2458C0 43.6094 8.595 54.9465 20.5175 58.9465C22.015 59.2263 22.5 58.2886 22.5 57.4922V51.8614C14.155 53.6913 12.4175 48.2924 12.4175 48.2924C11.0525 44.7965 9.085 43.8664 9.085 43.8664C6.3625 41.9887 9.2925 42.029 9.2925 42.029C12.305 42.2407 13.89 45.1469 13.89 45.1469C16.565 49.7694 20.9075 48.4336 22.62 47.6598C22.8875 45.7064 23.665 44.3705 24.525 43.6169C17.8625 42.8482 10.8575 40.2546 10.8575 28.6679C10.8575 25.3636 12.03 22.6667 13.9475 20.5495C13.6375 19.7858 12.61 16.7083 14.24 12.5444C14.24 12.5444 16.76 11.7328 22.4925 15.6446C24.885 14.9742 27.45 14.639 30 14.6263C32.55 14.639 35.1175 14.9742 37.515 15.6446C43.2425 11.7328 45.7575 12.5444 45.7575 12.5444C47.39 16.7108 46.3625 19.7883 46.0525 20.5495C47.9775 22.6667 49.14 25.3661 49.14 28.6679C49.14 40.2848 42.1225 42.8431 35.4425 43.5917C36.5175 44.5293 37.5 46.3693 37.5 49.1922V57.4922C37.5 58.2962 37.98 59.2414 39.5025 58.944C51.415 54.9389 60 43.6043 60 30.2458C60 13.5425 46.5675 0 30 0Z" fill="black"/>
</svg>
