<svg width="747" height="312" viewBox="0 0 747 312" fill="none" xmlns="http://www.w3.org/2000/svg">
<path d="M91.3027 311.476C68.6741 311.476 50.7701 307.497 37.5907 299.54C24.4114 291.583 14.9621 280.144 9.24272 265.224C3.52339 250.304 0.66372 232.524 0.66372 211.885V99.612C0.66372 78.724 3.52339 60.9443 9.24272 46.273C14.9621 31.6017 24.4114 20.4117 37.5907 12.703C50.7701 4.74565 68.6741 0.766985 91.3027 0.766985C114.18 0.766985 132.208 4.74565 145.388 12.703C158.816 20.4117 168.389 31.6017 174.109 46.273C179.828 60.9443 182.688 78.724 182.688 99.612V211.885C182.688 232.524 179.828 250.304 174.109 265.224C168.389 280.144 158.816 291.583 145.388 299.54C132.208 307.497 114.18 311.476 91.3027 311.476ZM91.3027 264.105C98.2654 264.105 103.363 262.364 106.596 258.883C109.828 255.402 111.942 250.926 112.937 245.455C113.931 239.984 114.429 234.389 114.429 228.67V83.2C114.429 77.232 113.931 71.637 112.937 66.415C111.942 60.9443 109.828 56.4683 106.596 52.987C103.363 49.5056 98.2654 47.765 91.3027 47.765C84.8374 47.765 79.9884 49.5056 76.7557 52.987C73.5231 56.4683 71.4094 60.9443 70.4147 66.415C69.4201 71.637 68.9227 77.232 68.9227 83.2V228.67C68.9227 234.389 69.2957 239.984 70.0417 245.455C71.0364 250.926 73.0257 255.402 76.0097 258.883C79.2424 262.364 84.3401 264.105 91.3027 264.105ZM218.099 307V249.558H275.541V307H218.099ZM341.615 307V54.479H296.109V4.86998H453.888V54.479H408.755V307H341.615ZM475.265 307V249.558H532.707V307H475.265ZM557.005 307L614.074 4.86998H690.166L746.489 307H684.944L674.873 243.217H630.486L620.042 307H557.005ZM636.454 203.306H668.532L652.493 85.438L636.454 203.306Z" fill="#0C1618"/>
</svg>
